<?xml version="1.0" encoding="UTF-8" standalone="no"?>
<!-- Created with Inkscape (http://www.inkscape.org/) -->

<svg
   xmlns:dc="http://purl.org/dc/elements/1.1/"
   xmlns:cc="http://creativecommons.org/ns#"
   xmlns:rdf="http://www.w3.org/1999/02/22-rdf-syntax-ns#"
   xmlns:svg="http://www.w3.org/2000/svg"
   xmlns="http://www.w3.org/2000/svg"
   xmlns:sodipodi="http://sodipodi.sourceforge.net/DTD/sodipodi-0.dtd"
   xmlns:inkscape="http://www.inkscape.org/namespaces/inkscape"
   width="19.699999mm"
   height="16.000059mm"
   viewBox="0 0 19.699999 16.000059"
   version="1.1"
   id="svg8"
   inkscape:version="0.92.3 (2405546, 2018-03-11)"
   sodipodi:docname="rfm69-rfm69w-schematic.svg">
  <defs
     id="defs2" />
  <sodipodi:namedview
     id="base"
     pagecolor="#ffffff"
     bordercolor="#666666"
     borderopacity="1.0"
     inkscape:pageopacity="0.0"
     inkscape:pageshadow="2"
     inkscape:zoom="11.2"
     inkscape:cx="38.609001"
     inkscape:cy="31.114101"
     inkscape:document-units="mm"
     inkscape:current-layer="layer1"
     showgrid="true"
     inkscape:window-width="1853"
     inkscape:window-height="1025"
     inkscape:window-x="67"
     inkscape:window-y="27"
     inkscape:window-maximized="1"
     fit-margin-top="0"
     fit-margin-left="0"
     fit-margin-right="0"
     fit-margin-bottom="0">
    <inkscape:grid
       type="xygrid"
       id="grid829"
       originx="-5.0002115"
       originy="-5.0001647"
       units="mm"
       spacingx="0.99999999"
       spacingy="0.99999999" />
  </sodipodi:namedview>
  <metadata
     id="metadata5">
    <rdf:RDF>
      <cc:Work
         rdf:about="">
        <dc:format>image/svg+xml</dc:format>
        <dc:type
           rdf:resource="http://purl.org/dc/dcmitype/StillImage" />
        <dc:title></dc:title>
      </cc:Work>
    </rdf:RDF>
  </metadata>
  <g
     inkscape:label="Layer 1"
     inkscape:groupmode="layer"
     id="layer1"
     transform="translate(-10.000211,-270.99978)">
    <path
       style="fill:#1f7a34;fill-opacity:1;stroke-width:0.26458475"
       d="m 10.000212,270.99978 v 0.50023 a 0.50000537,0.49999997 0 0 1 0.499716,0.50023 0.50000537,0.49999997 0 0 1 -0.499716,0.49971 v 0.99994 a 0.50000537,0.49999997 0 0 1 0.499716,0.50022 0.50000537,0.49999997 0 0 1 -0.499716,0.49971 v 0.99994 a 0.50000537,0.49999997 0 0 1 0.499716,0.50023 0.50000537,0.49999997 0 0 1 -0.499716,0.50023 v 0.99994 a 0.50000537,0.49999997 0 0 1 0.499716,0.49971 0.50000537,0.49999997 0 0 1 -0.499716,0.50023 v 0.99994 a 0.50000537,0.49999997 0 0 1 0.499716,0.49971 0.50000537,0.49999997 0 0 1 -0.499716,0.50023 v 0.99994 a 0.50000537,0.49999997 0 0 1 0.499716,0.50022 0.50000537,0.49999997 0 0 1 -0.499716,0.49971 v 0.99994 a 0.50000537,0.49999997 0 0 1 0.499716,0.50023 0.50000537,0.49999997 0 0 1 -0.499716,0.50023 v 0.99994 a 0.50000537,0.49999997 0 0 1 0.499716,0.49971 0.50000537,0.49999997 0 0 1 -0.499716,0.50022 v 0.49972 h 19.699784 v -0.49972 a 0.50000537,0.49999997 0 0 1 -0.499717,-0.50022 0.50000537,0.49999997 0 0 1 0.499717,-0.49971 v -0.99994 a 0.50000537,0.49999997 0 0 1 -0.499717,-0.50023 0.50000537,0.49999997 0 0 1 0.499717,-0.50023 v -0.99994 a 0.50000537,0.49999997 0 0 1 -0.499717,-0.49971 0.50000537,0.49999997 0 0 1 0.499717,-0.50022 v -0.99994 a 0.50000537,0.49999997 0 0 1 -0.499717,-0.50023 0.50000537,0.49999997 0 0 1 0.499717,-0.49971 v -0.99994 a 0.50000537,0.49999997 0 0 1 -0.499717,-0.50023 0.50000537,0.49999997 0 0 1 0.499717,-0.49971 v -0.99994 a 0.50000537,0.49999997 0 0 1 -0.499717,-0.50023 0.50000537,0.49999997 0 0 1 0.499717,-0.50023 v -0.99994 a 0.50000537,0.49999997 0 0 1 -0.499717,-0.49971 0.50000537,0.49999997 0 0 1 0.499717,-0.50022 v -0.99994 a 0.50000537,0.49999997 0 0 1 -0.499717,-0.49971 0.50000537,0.49999997 0 0 1 0.499717,-0.50023 v -0.50023 z m 1.399929,0.50023 a 0.50000537,0.49999997 0 0 1 0.499716,0.50023 0.50000537,0.49999997 0 0 1 -0.499716,0.49971 0.50000537,0.49999997 0 0 1 -0.500233,-0.49971 0.50000537,0.49999997 0 0 1 0.500233,-0.50023 z m 16.899926,0 a 0.50000537,0.49999997 0 0 1 0.500232,0.50023 0.50000537,0.49999997 0 0 1 -0.500232,0.49971 0.50000537,0.49999997 0 0 1 -0.499718,-0.49971 0.50000537,0.49999997 0 0 1 0.499718,-0.50023 z m -16.899926,1.99988 a 0.50000537,0.49999997 0 0 1 0.499716,0.50022 0.50000537,0.49999997 0 0 1 -0.499716,0.49971 0.50000537,0.49999997 0 0 1 -0.500233,-0.49971 0.50000537,0.49999997 0 0 1 0.500233,-0.50022 z m 16.899926,0 a 0.50000537,0.49999997 0 0 1 0.500232,0.50022 0.50000537,0.49999997 0 0 1 -0.500232,0.49971 0.50000537,0.49999997 0 0 1 -0.499718,-0.49971 0.50000537,0.49999997 0 0 1 0.499718,-0.50022 z m -16.899926,1.99987 a 0.50000537,0.49999997 0 0 1 0.499716,0.50023 0.50000537,0.49999997 0 0 1 -0.499716,0.50023 0.50000537,0.49999997 0 0 1 -0.500233,-0.50023 0.50000537,0.49999997 0 0 1 0.500233,-0.50023 z m 16.899926,0 a 0.50000537,0.49999997 0 0 1 0.500232,0.50023 0.50000537,0.49999997 0 0 1 -0.500232,0.50023 0.50000537,0.49999997 0 0 1 -0.499718,-0.50023 0.50000537,0.49999997 0 0 1 0.499718,-0.50023 z m -16.899926,2.0004 a 0.50000537,0.49999997 0 0 1 0.499716,0.49971 0.50000537,0.49999997 0 0 1 -0.499716,0.50023 0.50000537,0.49999997 0 0 1 -0.500233,-0.50023 0.50000537,0.49999997 0 0 1 0.500233,-0.49971 z m 16.899926,0 a 0.50000537,0.49999997 0 0 1 0.500232,0.49971 0.50000537,0.49999997 0 0 1 -0.500232,0.50023 0.50000537,0.49999997 0 0 1 -0.499718,-0.50023 0.50000537,0.49999997 0 0 1 0.499718,-0.49971 z m -16.899926,1.99988 a 0.50000537,0.49999997 0 0 1 0.499716,0.49971 0.50000537,0.49999997 0 0 1 -0.499716,0.50023 0.50000537,0.49999997 0 0 1 -0.500233,-0.50023 0.50000537,0.49999997 0 0 1 0.500233,-0.49971 z m 16.899926,0 a 0.50000537,0.49999997 0 0 1 0.500232,0.49971 0.50000537,0.49999997 0 0 1 -0.500232,0.50023 0.50000537,0.49999997 0 0 1 -0.499718,-0.50023 0.50000537,0.49999997 0 0 1 0.499718,-0.49971 z m -16.899926,1.99988 a 0.50000537,0.49999997 0 0 1 0.499716,0.50022 0.50000537,0.49999997 0 0 1 -0.499716,0.49971 0.50000537,0.49999997 0 0 1 -0.500233,-0.49971 0.50000537,0.49999997 0 0 1 0.500233,-0.50022 z m 16.899926,0 a 0.50000537,0.49999997 0 0 1 0.500232,0.50022 0.50000537,0.49999997 0 0 1 -0.500232,0.49971 0.50000537,0.49999997 0 0 1 -0.499718,-0.49971 0.50000537,0.49999997 0 0 1 0.499718,-0.50022 z m -16.899926,1.99987 a 0.50000537,0.49999997 0 0 1 0.499716,0.50023 0.50000537,0.49999997 0 0 1 -0.499716,0.50023 0.50000537,0.49999997 0 0 1 -0.500233,-0.50023 0.50000537,0.49999997 0 0 1 0.500233,-0.50023 z m 16.899926,0 a 0.50000537,0.49999997 0 0 1 0.500232,0.50023 0.50000537,0.49999997 0 0 1 -0.500232,0.50023 0.50000537,0.49999997 0 0 1 -0.499718,-0.50023 0.50000537,0.49999997 0 0 1 0.499718,-0.50023 z m -16.899926,2.0004 a 0.50000537,0.49999997 0 0 1 0.499716,0.49971 0.50000537,0.49999997 0 0 1 -0.499716,0.50022 0.50000537,0.49999997 0 0 1 -0.500233,-0.50022 0.50000537,0.49999997 0 0 1 0.500233,-0.49971 z m 16.899926,0 a 0.50000537,0.49999997 0 0 1 0.500232,0.49971 0.50000537,0.49999997 0 0 1 -0.500232,0.50022 0.50000537,0.49999997 0 0 1 -0.499718,-0.50022 0.50000537,0.49999997 0 0 1 0.499718,-0.49971 z"
       id="rect831"
       inkscape:connector-curvature="0" />
    <g
       id="g1134"
       transform="matrix(1.0000107,0,0,1,4.9999463,-5)">
      <path
         id="rect852-3-7-6"
         transform="matrix(0.26458333,0,0,0.26458333,0,247)"
         d="m 18.898438,111.11914 v 0.37695 a 1.8897638,1.8897637 0 0 1 1.888671,1.89063 1.8897638,1.8897637 0 0 1 -1.888671,1.88867 v 0.37891 h 7.558593 v -4.53516 z m 5.291015,0.37695 a 1.8897638,1.8897637 0 0 1 1.888672,1.89063 1.8897638,1.8897637 0 0 1 -1.888672,1.88867 1.8897638,1.8897637 0 0 1 -1.890625,-1.88867 1.8897638,1.8897637 0 0 1 1.890625,-1.89063 z"
         style="fill:#f7bd13;fill-opacity:1;stroke-width:1.09544516"
         inkscape:connector-curvature="0" />
      <path
         id="rect852-3-7-6-2"
         d="m 5.0002117,278.40007 v 0.0997 a 0.50003059,0.49999998 0 0 1 0.4997415,0.50026 0.50003059,0.49999998 0 0 1 -0.4997415,0.49971 V 279.6 h 2 v -1.19993 z m 1.4,0.0997 A 0.50003059,0.49999998 0 0 1 6.8999534,279 0.50003059,0.49999998 0 0 1 6.4002117,279.49971 0.50003059,0.49999998 0 0 1 5.8999532,279 0.50003059,0.49999998 0 0 1 6.4002117,278.49977 Z"
         style="fill:#f7bd13;fill-opacity:1;stroke-width:0.28984538"
         inkscape:connector-curvature="0" />
      <path
         id="rect852-3-7-6-0"
         d="m 5.0002117,280.40027 v 0.0997 a 0.50000001,0.49999998 0 0 1 0.4997109,0.50026 0.50000001,0.49999998 0 0 1 -0.4997109,0.49971 v 0.10026 h 1.9998777 v -1.19993 z m 1.3999144,0.0997 a 0.50000001,0.49999998 0 0 1 0.4997111,0.50023 0.50000001,0.49999998 0 0 1 -0.4997111,0.49971 0.50000001,0.49999998 0 0 1 -0.5002279,-0.49971 0.50000001,0.49999998 0 0 1 0.5002279,-0.50023 z"
         style="fill:#f7bd13;fill-opacity:1;stroke-width:0.28983653"
         inkscape:connector-curvature="0" />
      <path
         id="rect852-3-7-6-2-2"
         d="m 5.0002118,282.40007 v 0.0997 a 0.50003059,0.49999998 0 0 1 0.4997415,0.50026 0.50003059,0.49999998 0 0 1 -0.4997415,0.49971 V 283.6 h 1.9999999 v -1.19993 z m 1.4,0.0997 A 0.50003059,0.49999998 0 0 1 6.8999535,283 0.50003059,0.49999998 0 0 1 6.4002118,283.49971 0.50003059,0.49999998 0 0 1 5.8999533,283 0.50003059,0.49999998 0 0 1 6.4002118,282.49977 Z"
         style="fill:#f7bd13;fill-opacity:1;stroke-width:0.28984541"
         inkscape:connector-curvature="0" />
      <path
         id="rect852-3-7-6-3"
         d="m 5.0002117,284.40027 v 0.0997 a 0.50000001,0.49999998 0 0 1 0.4997109,0.50026 0.50000001,0.49999998 0 0 1 -0.4997109,0.49971 v 0.10026 h 1.9998777 v -1.19993 z m 1.3999144,0.0997 a 0.50000001,0.49999998 0 0 1 0.4997111,0.50023 0.50000001,0.49999998 0 0 1 -0.4997111,0.49971 0.50000001,0.49999998 0 0 1 -0.5002279,-0.49971 0.50000001,0.49999998 0 0 1 0.5002279,-0.50023 z"
         style="fill:#f7bd13;fill-opacity:1;stroke-width:0.28983653"
         inkscape:connector-curvature="0" />
      <path
         id="rect852-3-7-6-2-7"
         d="m 5.0002118,286.40007 v 0.0997 a 0.50003059,0.49999998 0 0 1 0.4997415,0.50026 0.50003059,0.49999998 0 0 1 -0.4997415,0.49971 V 287.6 h 1.9999999 v -1.19993 z m 1.4,0.0997 A 0.50003059,0.49999998 0 0 1 6.8999535,287 0.50003059,0.49999998 0 0 1 6.4002118,287.49971 0.50003059,0.49999998 0 0 1 5.8999533,287 0.50003059,0.49999998 0 0 1 6.4002118,286.49977 Z"
         style="fill:#f7bd13;fill-opacity:1;stroke-width:0.28984541"
         inkscape:connector-curvature="0" />
      <path
         id="rect852-3-7-6-0-5"
         d="m 5.0002118,288.40027 v 0.0997 a 0.50000001,0.49999998 0 0 1 0.4997109,0.50026 0.50000001,0.49999998 0 0 1 -0.4997109,0.49971 v 0.10026 h 1.9998777 v -1.19993 z m 1.3999143,0.0997 a 0.50000001,0.49999998 0 0 1 0.4997111,0.50023 0.50000001,0.49999998 0 0 1 -0.4997111,0.49971 0.50000001,0.49999998 0 0 1 -0.5002278,-0.49971 0.50000001,0.49999998 0 0 1 0.5002278,-0.50023 z"
         style="fill:#f7bd13;fill-opacity:1;stroke-width:0.28983653"
         inkscape:connector-curvature="0" />
      <path
         id="rect852-3-7-6-2-2-9"
         d="m 5.0002119,290.40007 v 0.0997 a 0.50003059,0.49999998 0 0 1 0.4997415,0.50026 0.50003059,0.49999998 0 0 1 -0.4997415,0.49971 V 291.6 h 1.9999998 v -1.19993 z m 1.3999999,0.0997 A 0.50003059,0.49999998 0 0 1 6.8999536,291 0.50003059,0.49999998 0 0 1 6.4002118,291.49971 0.50003059,0.49999998 0 0 1 5.8999534,291 0.50003059,0.49999998 0 0 1 6.4002118,290.49977 Z"
         style="fill:#f7bd13;fill-opacity:1;stroke-width:0.28984544"
         inkscape:connector-curvature="0" />
      <path
         id="rect852-3-7-6-22"
         d="m 24.7,276.40027 v 0.0997 a 0.50000001,0.49999998 0 0 0 -0.499711,0.50026 0.50000001,0.49999998 0 0 0 0.499711,0.49971 v 0.10026 h -1.999878 v -1.19993 z m -1.399915,0.0997 a 0.50000001,0.49999998 0 0 0 -0.499711,0.50023 0.50000001,0.49999998 0 0 0 0.499711,0.49971 0.50000001,0.49999998 0 0 0 0.500228,-0.49971 0.50000001,0.49999998 0 0 0 -0.500228,-0.50023 z"
         style="fill:#f7bd13;fill-opacity:1;stroke-width:0.28983653"
         inkscape:connector-curvature="0" />
      <path
         id="rect852-3-7-6-2-8"
         d="m 24.7,278.40007 v 0.0997 A 0.50003059,0.49999998 0 0 0 24.200258,279.00003 0.50003059,0.49999998 0 0 0 24.7,279.49974 V 279.6 h -2 v -1.19993 z m -1.4,0.0997 A 0.50003059,0.49999998 0 0 0 22.800258,279 0.50003059,0.49999998 0 0 0 23.3,279.49971 0.50003059,0.49999998 0 0 0 23.800258,279 0.50003059,0.49999998 0 0 0 23.3,278.49977 Z"
         style="fill:#f7bd13;fill-opacity:1;stroke-width:0.28984541"
         inkscape:connector-curvature="0" />
      <path
         id="rect852-3-7-6-0-9"
         d="m 24.7,280.40027 v 0.0997 a 0.50000001,0.49999998 0 0 0 -0.499711,0.50026 0.50000001,0.49999998 0 0 0 0.499711,0.49971 v 0.10026 h -1.999878 v -1.19993 z m -1.399915,0.0997 a 0.50000001,0.49999998 0 0 0 -0.499711,0.50023 0.50000001,0.49999998 0 0 0 0.499711,0.49971 0.50000001,0.49999998 0 0 0 0.500228,-0.49971 0.50000001,0.49999998 0 0 0 -0.500228,-0.50023 z"
         style="fill:#f7bd13;fill-opacity:1;stroke-width:0.28983653"
         inkscape:connector-curvature="0" />
      <path
         id="rect852-3-7-6-2-2-7"
         d="m 24.7,282.40007 v 0.0997 A 0.50003059,0.49999998 0 0 0 24.200258,283.00003 0.50003059,0.49999998 0 0 0 24.7,283.49974 V 283.6 h -2 v -1.19993 z m -1.4,0.0997 A 0.50003059,0.49999998 0 0 0 22.800258,283 0.50003059,0.49999998 0 0 0 23.3,283.49971 0.50003059,0.49999998 0 0 0 23.800258,283 0.50003059,0.49999998 0 0 0 23.3,282.49977 Z"
         style="fill:#f7bd13;fill-opacity:1;stroke-width:0.28984544"
         inkscape:connector-curvature="0" />
      <path
         id="rect852-3-7-6-3-3"
         d="m 24.7,284.40027 v 0.0997 a 0.50000001,0.49999998 0 0 0 -0.499711,0.50026 0.50000001,0.49999998 0 0 0 0.499711,0.49971 v 0.10026 h -1.999878 v -1.19993 z m -1.399915,0.0997 a 0.50000001,0.49999998 0 0 0 -0.499711,0.50023 0.50000001,0.49999998 0 0 0 0.499711,0.49971 0.50000001,0.49999998 0 0 0 0.500228,-0.49971 0.50000001,0.49999998 0 0 0 -0.500228,-0.50023 z"
         style="fill:#f7bd13;fill-opacity:1;stroke-width:0.28983653"
         inkscape:connector-curvature="0" />
      <path
         id="rect852-3-7-6-2-7-6"
         d="m 24.7,286.40007 v 0.0997 A 0.50003059,0.49999998 0 0 0 24.200258,287.00003 0.50003059,0.49999998 0 0 0 24.7,287.49974 V 287.6 h -2 v -1.19993 z m -1.4,0.0997 A 0.50003059,0.49999998 0 0 0 22.800258,287 0.50003059,0.49999998 0 0 0 23.3,287.49971 0.50003059,0.49999998 0 0 0 23.800258,287 0.50003059,0.49999998 0 0 0 23.3,286.49977 Z"
         style="fill:#f7bd13;fill-opacity:1;stroke-width:0.28984544"
         inkscape:connector-curvature="0" />
      <path
         id="rect852-3-7-6-0-5-1"
         d="m 24.7,288.40027 v 0.0997 a 0.50000001,0.49999998 0 0 0 -0.499711,0.50026 0.50000001,0.49999998 0 0 0 0.499711,0.49971 v 0.10026 h -1.999878 v -1.19993 z m -1.399915,0.0997 a 0.50000001,0.49999998 0 0 0 -0.499711,0.50023 0.50000001,0.49999998 0 0 0 0.499711,0.49971 0.50000001,0.49999998 0 0 0 0.500228,-0.49971 0.50000001,0.49999998 0 0 0 -0.500228,-0.50023 z"
         style="fill:#f7bd13;fill-opacity:1;stroke-width:0.28983653"
         inkscape:connector-curvature="0" />
      <path
         id="rect852-3-7-6-2-2-9-2"
         d="m 24.7,290.40007 v 0.0997 A 0.50003059,0.49999998 0 0 0 24.200258,291.00003 0.50003059,0.49999998 0 0 0 24.7,291.49974 V 291.6 h -2 v -1.19993 z m -1.4,0.0997 A 0.50003059,0.49999998 0 0 0 22.800258,291 0.50003059,0.49999998 0 0 0 23.3,291.49971 0.50003059,0.49999998 0 0 0 23.800258,291 0.50003059,0.49999998 0 0 0 23.3,290.49977 Z"
         style="fill:#f7bd13;fill-opacity:1;stroke-width:0.28984544"
         inkscape:connector-curvature="0" />
    </g>
    <rect
       style="fill:#000000;stroke:none;stroke-width:0.50000268;stroke-linecap:round;stroke-linejoin:miter;stroke-miterlimit:9.30000019;stroke-dasharray:none;stroke-opacity:1;paint-order:fill markers stroke"
       id="rect1359"
       width="5.0000539"
       height="5"
       x="14.000043"
       y="279" />
    <rect
       style="fill:#cccccc;stroke:#f7bd13;stroke-width:0.15000081;stroke-linejoin:bevel;stroke-miterlimit:4;stroke-dasharray:none;stroke-opacity:1"
       id="rect1361"
       width="2.5000269"
       height="3"
       x="18.500092"
       y="273" />
    <rect
       style="fill:#f7bd13;fill-opacity:1;stroke-width:0.26458475"
       id="rect1363"
       width="4.0000429"
       height="1.25"
       x="13.000032"
       y="273" />
    <rect
       style="fill:#f7bd13;fill-opacity:1;stroke-width:0.26458475"
       id="rect1363-5"
       width="4.0000429"
       height="1.25"
       x="22.00013"
       y="273" />
  </g>
</svg>
