<?xml version='1.0' encoding='UTF-8' standalone='no'?>
<svg xmlns="http://www.w3.org/2000/svg"  version="1.1" gorn="0" height="16mm" viewBox="0 0 19.7 16" id="svg8" width="19.7mm">
    <desc >
        <referenceFile >rfm69-rfm69w-breadboard.svg</referenceFile>
    </desc>
    <g  gorn="0.1" id="breadboard">
        <path fill="#1f7a34"  gorn="0.1.0" d="M 0,0 v 0.4 h 2 v 1.2 h -2 v 0.8 h 2 v 1.2 h -2 v 0.8 h 2 v 1.2 h -2 v 0.8 h 2 v 1.2 h -2 v 0.8 h 2 v 1.2 h -2 v 0.8 h 2 v 1.2 h -2 v 0.8 h 2 v 1.2 h -2 v 0.8 h 2 v 1.2 h -2 v 0.4 h 19.7 v -0.4 h -2 v -1.2 h 2 v -0.8 h -2 v -1.2 h 2 v -0.8 h -2 v -1.2 h 2 v -0.8 h -2 v -1.2 h 2 v -0.8 h -2 v -1.2 h 2 v -0.8 h -2 v -1.2 h 2 v -0.8 h -2 v -1.2 h 2 v -0.8 h -2 v -1.2 h 2 v -0.4 Z" id="pcb"/>
        <g  gorn="0.1.1" id="connectors">
            <path fill="#f7bd13"  gorn="0.1.1.0" d="M 0,0.4 v 0.1 a 0.5,0.5 0 0 1 0.5,0.5 0.5,0.5 0 0 1 -0.5,0.5 v 0.1 h 2 v -1.2 Z m 1.4,0.1 a 0.5,0.5 0 0 1 0.5,0.5 0.5,0.5 0 0 1 -0.5,0.5 0.5,0.5 0 0 1 -0.5,-0.5 0.5,0.5 0 0 1 0.5,-0.5 Z" id="connector0terminal"/>
            <path fill="#f7bd13"  gorn="0.1.1.2" d="M 0,2.4 v 0.1 a 0.5,0.5 0 0 1 0.5,0.5 0.5,0.5 0 0 1 -0.5,0.5 v 0.1 h 2 v -1.2 Z m 1.4,0.1 a 0.5,0.5 0 0 1 0.5,0.5 0.5,0.5 0 0 1 -0.5,0.5 0.5,0.5 0 0 1 -0.5,-0.5 0.5,0.5 0 0 1 0.5,-0.5 Z" id="connector1terminal"/>
            <path fill="#f7bd13"  gorn="0.1.1.4" d="M 0,4.4 v 0.1 a 0.5,0.5 0 0 1 0.5,0.5 0.5,0.5 0 0 1 -0.5,0.5 v 0.1 h 2 v -1.2 Z m 1.4,0.1 a 0.5,0.5 0 0 1 0.5,0.5 0.5,0.5 0 0 1 -0.5,0.5 0.5,0.5 0 0 1 -0.5,-0.5 0.5,0.5 0 0 1 0.5,-0.5 Z" id="connector2terminal"/>
            <path fill="#f7bd13"  gorn="0.1.1.6" d="M 0,6.4 v 0.1 a 0.5,0.5 0 0 1 0.5,0.5 0.5,0.5 0 0 1 -0.5,0.5 v 0.1 h 2 v -1.2 Z m 1.4,0.1 a 0.5,0.5 0 0 1 0.5,0.5 0.5,0.5 0 0 1 -0.5,0.5 0.5,0.5 0 0 1 -0.5,-0.5 0.5,0.5 0 0 1 0.5,-0.5 Z" id="connector3terminal"/>
            <path fill="#f7bd13"  gorn="0.1.1.8" d="M 0,8.4 v 0.1 a 0.5,0.5 0 0 1 0.5,0.5 0.5,0.5 0 0 1 -0.5,0.5 v 0.1 h 2 v -1.2 Z m 1.4,0.1 a 0.5,0.5 0 0 1 0.5,0.5 0.5,0.5 0 0 1 -0.5,0.5 0.5,0.5 0 0 1 -0.5,-0.5 0.5,0.5 0 0 1 0.5,-0.5 Z" id="connector4terminal"/>
            <path fill="#f7bd13"  gorn="0.1.1.10" d="M 0,10.4 v 0.1 a 0.5,0.5 0 0 1 0.5,0.5 0.5,0.5 0 0 1 -0.5,0.5 v 0.1 h 2 v -1.2 Z m 1.4,0.1 a 0.5,0.5 0 0 1 0.5,0.5 0.5,0.5 0 0 1 -0.5,0.5 0.5,0.5 0 0 1 -0.5,-0.5 0.5,0.5 0 0 1 0.5,-0.5 Z" id="connector5terminal"/>
            <path fill="#f7bd13"  gorn="0.1.1.12" d="M 0,12.4 v 0.1 a 0.5,0.5 0 0 1 0.5,0.5 0.5,0.5 0 0 1 -0.5,0.5 v 0.1 h 2 v -1.2 Z m 1.4,0.1 a 0.5,0.5 0 0 1 0.5,0.5 0.5,0.5 0 0 1 -0.5,0.5 0.5,0.5 0 0 1 -0.5,-0.5 0.5,0.5 0 0 1 0.5,-0.5 Z" id="connector6terminal"/>
            <path fill="#f7bd13"  gorn="0.1.1.14" d="M 0,14.4 v 0.1 a 0.5,0.5 0 0 1 0.5,0.5 0.5,0.5 0 0 1 -0.5,0.5 v 0.1 h 2 v -1.2 Z m 1.4,0.1 a 0.5,0.5 0 0 1 0.5,0.5 0.5,0.5 0 0 1 -0.5,0.5 0.5,0.5 0 0 1 -0.5,-0.5 0.5,0.5 0 0 1 0.5,-0.5 Z" id="connector7terminal"/>
            <path fill="#f7bd13"  gorn="0.1.1.16" d="M 19.7,14.4  v 0.1 a 0.5,0.5 0 0 0 -0.5,0.5 0.5,0.5 0 0 0 0.5,0.5 v 0.1 h -2 v -1.2 Z m -1.4,0.1 a 0.5,0.5 0 0 0 -0.5,0.5 0.5,0.5 0 0 0 0.5,0.5 0.5,0.5 0 0 0 0.5,-0.5 0.5,0.5 0 0 0 -0.5,-0.5 Z" id="connector8terminal"/>
            <path fill="#f7bd13"  gorn="0.1.1.18" d="M 19.7,12.4  v 0.1 a 0.5,0.5 0 0 0 -0.5,0.5 0.5,0.5 0 0 0 0.5,0.5 v 0.1 h -2 v -1.2 Z m -1.4,0.1 a 0.5,0.5 0 0 0 -0.5,0.5 0.5,0.5 0 0 0 0.5,0.5 0.5,0.5 0 0 0 0.5,-0.5 0.5,0.5 0 0 0 -0.5,-0.5 Z" id="connector9terminal"/>
            <path fill="#f7bd13"  gorn="0.1.1.20" d="M 19.7,10.4  v 0.1 a 0.5,0.5 0 0 0 -0.5,0.5 0.5,0.5 0 0 0 0.5,0.5 v 0.1 h -2 v -1.2 Z m -1.4,0.1 a 0.5,0.5 0 0 0 -0.5,0.5 0.5,0.5 0 0 0 0.5,0.5 0.5,0.5 0 0 0 0.5,-0.5 0.5,0.5 0 0 0 -0.5,-0.5 Z" id="connector10terminal"/>
            <path fill="#f7bd13"  gorn="0.1.1.22" d="M 19.7,8.4  v 0.1 a 0.5,0.5 0 0 0 -0.5,0.5 0.5,0.5 0 0 0 0.5,0.5 v 0.1 h -2 v -1.2 Z m -1.4,0.1 a 0.5,0.5 0 0 0 -0.5,0.5 0.5,0.5 0 0 0 0.5,0.5 0.5,0.5 0 0 0 0.5,-0.5 0.5,0.5 0 0 0 -0.5,-0.5 Z" id="connector11terminal"/>
            <path fill="#f7bd13"  gorn="0.1.1.24" d="M 19.7,6.4  v 0.1 a 0.5,0.5 0 0 0 -0.5,0.5 0.5,0.5 0 0 0 0.5,0.5 v 0.1 h -2 v -1.2 Z m -1.4,0.1 a 0.5,0.5 0 0 0 -0.5,0.5 0.5,0.5 0 0 0 0.5,0.5 0.5,0.5 0 0 0 0.5,-0.5 0.5,0.5 0 0 0 -0.5,-0.5 Z" id="connector12terminal"/>
            <path fill="#f7bd13"  gorn="0.1.1.26" d="M 19.7,4.4  v 0.1 a 0.5,0.5 0 0 0 -0.5,0.5 0.5,0.5 0 0 0 0.5,0.5 v 0.1 h -2 v -1.2 Z m -1.4,0.1 a 0.5,0.5 0 0 0 -0.5,0.5 0.5,0.5 0 0 0 0.5,0.5 0.5,0.5 0 0 0 0.5,-0.5 0.5,0.5 0 0 0 -0.5,-0.5 Z" id="connector13terminal"/>
            <path fill="#f7bd13"  gorn="0.1.1.28" d="M 19.7,2.4  v 0.1 a 0.5,0.5 0 0 0 -0.5,0.5 0.5,0.5 0 0 0 0.5,0.5 v 0.1 h -2 v -1.2 Z m -1.4,0.1 a 0.5,0.5 0 0 0 -0.5,0.5 0.5,0.5 0 0 0 0.5,0.5 0.5,0.5 0 0 0 0.5,-0.5 0.5,0.5 0 0 0 -0.5,-0.5 Z" id="connector14terminal"/>
            <path fill="#f7bd13"  gorn="0.1.1.30" d="M 19.7,0.4  v 0.1 a 0.5,0.5 0 0 0 -0.5,0.5 0.5,0.5 0 0 0 0.5,0.5 v 0.1 h -2 v -1.2 Z m -1.4,0.1 a 0.5,0.5 0 0 0 -0.5,0.5 0.5,0.5 0 0 0 0.5,0.5 0.5,0.5 0 0 0 0.5,-0.5 0.5,0.5 0 0 0 -0.5,-0.5 Z" id="connector15terminal"/>
        </g>
        <rect y="8"  style="fill:#000000" gorn="0.1.2" height="5" x="4" id="ic" width="5"/>
        <rect y="2"  style="fill:#cccccc;stroke:#f7bd13;stroke-width:0.15;stroke-linejoin:bevel" gorn="0.1.3" height="3" x="8.5" id="clock" width="2.5"/>
        <rect y="2"  style="fill:#f7bd13" gorn="0.1.4" height="1.25" x="3" id="left-antenna-pad" width="4"/>
        <rect y="2"  style="fill:#f7bd13" gorn="0.1.5" height="1.25" x="12" id="right-antenna-pad" width="4"/>
    </g>
</svg>
