<?xml version='1.0' encoding='UTF-8'?>
<svg xmlns="http://www.w3.org/2000/svg"  version="1.1" gorn="0" height="16.2mm" viewBox="0 0 21.7 16.2" id="svg8" width="21.7mm">
    <desc >
        <referenceFile >rfm69-rfm69w-pcb.svg</referenceFile>
    </desc>
    <g  gorn="0.1" id="silkscreen">
        <path stroke="none" fill="#ffffff"  gorn="0.1.0" d="M 0.9 0 h 19.9 v 0.3 h -0.2 v -0.1 h -19.5 v 0.1 h -0.2 Z M 0.9 1.9 h 0.2 v 0.4 h -0.2 Z M 0.9 3.9 h 0.2 v 0.4 h -0.2 Z M 0.9 5.9 h 0.2 v 0.4 h -0.2 Z M 0.9 7.9 h 0.2 v 0.4 h -0.2 Z M 0.9 9.9 h 0.2 v 0.4 h -0.2 Z M 0.9 11.9 h 0.2 v 0.4 h -0.2 Z M 0.9 13.9 h 0.2 v 0.4 h -0.2 Z M 20.6 1.9 h 0.2 v 0.4 h -0.2 Z M 20.6 3.9 h 0.2 v 0.4 h -0.2 Z  M 20.6 5.9 h 0.2 v 0.4 h -0.2 Z M 20.6 7.9 h 0.2 v 0.4 h -0.2 Z M 20.6 9.9 h 0.2 v 0.4 h -0.2 Z M 20.6 11.9 h 0.2 v 0.4 h -0.2 Z M 20.6 13.9 h 0.2 v 0.4 h -0.2 Z M 0.9 15.9 h 0.2 v 0.1 h 19.5 v -0.1 h 0.2 v 0.3 h -19.9 Z" id="chip-outline"/>
        <g  transform="rotate(90, 11, 8)">
            <g >
                <g >
                    <text y="9"  style="fill:#ffffff;font-family:OCRA;font-size:3px" text-anchor="middle" gorn="0.1.1.0.0.0" x="11.2" id="part-label">RFM69W</text>
                </g>
            </g>
        </g>
        <text y="1.7"  style="fill:#ffffff;font-family:OCRA;font-size:1.6px" gorn="0.1.2" x="3.5" id="pin1-label">RESET</text>
        <text y="3.7"  style="fill:#ffffff;font-family:OCRA;font-size:1.6px" gorn="0.1.3" x="3.5" id="pin2-label">DIO0</text>
        <text y="5.7"  style="fill:#ffffff;font-family:OCRA;font-size:1.6px" gorn="0.1.4" x="3.5" id="pin3-label">DIO1</text>
        <text y="7.7"  style="fill:#ffffff;font-family:OCRA;font-size:1.6px" gorn="0.1.5" x="3.5" id="pin4-label">DIO2</text>
        <text y="9.7"  style="fill:#ffffff;font-family:OCRA;font-size:1.6px" gorn="0.1.6" x="3.5" id="pin5-label">DIO3</text>
        <text y="11.7"  style="fill:#ffffff;font-family:OCRA;font-size:1.6px" gorn="0.1.7" x="3.5" id="pin6-label">DIO4</text>
        <text y="13.7"  style="fill:#ffffff;font-family:OCRA;font-size:1.6px" gorn="0.1.8" x="3.5" id="pin7-label">DIO5</text>
        <text y="15.7"  style="fill:#ffffff;font-family:OCRA;font-size:1.6px" gorn="0.1.9" x="3.5" id="pin8-label">3V3</text>
        <text y="15.7"  style="fill:#ffffff;font-family:OCRA;font-size:1.6px" text-anchor="end" gorn="0.1.10" x="18.2" id="pin9-label">GND</text>
        <text y="13.7"  style="fill:#ffffff;font-family:OCRA;font-size:1.6px" text-anchor="end" gorn="0.1.11" x="18.2" id="pin10-label">ANA</text>
        <text y="11.7"  style="fill:#ffffff;font-family:OCRA;font-size:1.6px" text-anchor="end" gorn="0.1.12" x="18.2" id="pin11-label">GND</text>
        <text y="9.7"  style="fill:#ffffff;font-family:OCRA;font-size:1.6px" text-anchor="end" gorn="0.1.13" x="18.2" id="pin12-label">SCK</text>
        <text y="7.7"  style="fill:#ffffff;font-family:OCRA;font-size:1.6px" text-anchor="end" gorn="0.1.14" x="18.2" id="pin13-label">MISO</text>
        <text y="5.7"  style="fill:#ffffff;font-family:OCRA;font-size:1.6px" text-anchor="end" gorn="0.1.15" x="18.2" id="pin14-label">MOSI</text>
        <text y="3.7"  style="fill:#ffffff;font-family:OCRA;font-size:1.6px" text-anchor="end" gorn="0.1.16" x="18.2" id="pin15-label">NSS</text>
        <text y="1.7"  style="fill:#ffffff;font-family:OCRA;font-size:1.6px" text-anchor="end" gorn="0.1.17" x="18.2" id="pin16-label">NC</text>
    </g>
    <g  gorn="0.2" id="copper1">
        <rect stroke="none" y="0.5"  style="fill:#f7bd13" gorn="0.2.0" height="1.2" x="0" id="connector0pad" width="3"/>
        <rect stroke="none" y="2.5"  style="fill:#f7bd13" gorn="0.2.1" height="1.2" x="0" id="connector1pad" width="3"/>
        <rect stroke="none" y="4.5"  style="fill:#f7bd13" gorn="0.2.2" height="1.2" x="0" id="connector2pad" width="3"/>
        <rect stroke="none" y="6.5"  style="fill:#f7bd13" gorn="0.2.3" height="1.2" x="0" id="connector3pad" width="3"/>
        <rect stroke="none" y="8.5"  style="fill:#f7bd13" gorn="0.2.4" height="1.2" x="0" id="connector4pad" width="3"/>
        <rect stroke="none" y="10.5"  style="fill:#f7bd13" gorn="0.2.5" height="1.2" x="0" id="connector5pad" width="3"/>
        <rect stroke="none" y="12.5"  style="fill:#f7bd13" gorn="0.2.6" height="1.2" x="0" id="connector6pad" width="3"/>
        <rect stroke="none" y="14.5"  style="fill:#f7bd13" gorn="0.2.7" height="1.2" x="0" id="connector7pad" width="3"/>
        <rect stroke="none" y="14.5"  style="fill:#f7bd13" gorn="0.2.8" height="1.2" x="18.7" id="connector8pad" width="3"/>
        <rect stroke="none" y="12.5"  style="fill:#f7bd13" gorn="0.2.9" height="1.2" x="18.7" id="connector9pad" width="3"/>
        <rect stroke="none" y="10.5"  style="fill:#f7bd13" gorn="0.2.10" height="1.2" x="18.7" id="connector10pad" width="3"/>
        <rect stroke="none" y="8.5"  style="fill:#f7bd13" gorn="0.2.11" height="1.2" x="18.7" id="connector11pad" width="3"/>
        <rect stroke="none" y="6.5"  style="fill:#f7bd13" gorn="0.2.12" height="1.2" x="18.7" id="connector12pad" width="3"/>
        <rect stroke="none" y="4.5"  style="fill:#f7bd13" gorn="0.2.13" height="1.2" x="18.7" id="connector13pad" width="3"/>
        <rect stroke="none" y="2.5"  style="fill:#f7bd13" gorn="0.2.14" height="1.2" x="18.7" id="connector14pad" width="3"/>
        <rect stroke="none" y="0.5"  style="fill:#f7bd13" gorn="0.2.15" height="1.2" x="18.7" id="connector15pad" width="3"/>
    </g>
</svg>
